Coordinates
version=1
nRows=27
nColumns=12
inDegrees=yes

Units are S.I. units (second, meters, Newtons, ...)
Angles are in degrees

endheader
time	SC_y	SC_z	SC_x	AC_y	AC_z	AC_x	GH_y	GH_z	GH_yy	EL_x	PS_y
       0.0              -12.98          29.13          82.36          66.57         -2.372          3.521          106.5          42.35          152.1          30.63          124.3
   0.04065              -12.98          29.12          82.36          66.57         -2.373          3.518          106.5          42.34          152.0          30.65          124.3
   0.08129              -12.98          29.12          82.35          66.57         -2.374          3.514          106.5          42.34          152.0          30.66          124.3
    0.1219              -12.98          29.11          82.35          66.56         -2.375          3.511          106.5          42.34          152.0          30.68          124.3
    0.1626              -12.98          29.11          82.35          66.56         -2.376          3.507          106.5          42.34          151.9           30.7          124.2
    0.2032              -12.98          29.11          82.34          66.56         -2.378          3.503          106.5          42.33          151.9          30.71          124.2
    0.2439              -12.99           29.1          82.34          66.56         -2.379          3.498          106.4          42.33          151.8          30.73          124.2
    0.2845              -12.99           29.1          82.33          66.55          -2.38          3.493          106.4          42.33          151.8          30.75          124.2
    0.3252              -12.99          29.09          82.33          66.55         -2.382          3.488          106.4          42.32          151.7          30.77          124.2
    0.3658              -12.99          29.08          82.32          66.55         -2.384          3.483          106.4          42.32          151.6           30.8          124.2
    0.4065               -13.0          29.08          82.32          66.54         -2.385          3.477          106.4          42.31          151.6          30.82          124.2
    0.4471               -13.0          29.07          82.31          66.54         -2.387           3.47          106.4          42.31          151.5          30.85          124.2
    0.4878               -13.0          29.06          82.31          66.54         -2.389          3.463          106.4           42.3          151.4          30.88          124.1
    0.5284              -13.01          29.06           82.3          66.53         -2.391          3.456          106.4           42.3          151.3          30.91          124.1
    0.5691              -13.01          29.05          82.29          66.53         -2.394          3.448          106.3          42.29          151.2          30.94          124.1
    0.6097              -13.01          29.04          82.28          66.52         -2.396          3.439          106.3          42.28          151.1          30.98          124.1
    0.6504              -13.02          29.03          82.27          66.52         -2.399           3.43          106.3          42.28          151.0          31.02          124.0
     0.691              -13.02          29.02          82.27          66.51         -2.402          3.419          106.3          42.27          150.9          31.06          124.0
    0.7316              -13.03           29.0          82.25           66.5         -2.406          3.408          106.2          42.26          150.8          31.11          124.0
    0.7723              -13.03          28.99          82.24           66.5         -2.409          3.396          106.2          42.25          150.6          31.16          124.0
    0.8129              -13.04          28.97          82.23          66.49         -2.413          3.382          106.2          42.24          150.5          31.21          123.9
    0.8536              -13.05          28.96          82.22          66.48         -2.418          3.367          106.2          42.23          150.3          31.28          123.9
    0.8942              -13.05          28.94           82.2          66.47         -2.422          3.351          106.1          42.22          150.1          31.34          123.8
    0.9349              -13.06          28.92          82.19          66.46         -2.428          3.333          106.1          42.21          149.9          31.42          123.8
    0.9755              -13.07           28.9          82.17          66.45         -2.434          3.312          106.0          42.19          149.7           31.5          123.7
     1.016              -13.08          28.87          82.15          66.43         -2.441           3.29          106.0          42.17          149.4           31.6          123.7
     1.057              -13.09          28.85          82.12          66.42         -2.448          3.264          105.9          42.15          149.2           31.7          123.6
